<?xml version="1.0" encoding="utf-8"?>
<svg xmlns="http://www.w3.org/2000/svg" fill="none" height="100%" overflow="visible" preserveAspectRatio="none" style="display: block;" viewBox="0 0 96 36" width="100%">
<g id="Group">
<path d="M88.7471 3.8147e-06L59.9593 28.7878L51.5858 20.3837L53.9695 18L59.9593 23.9898L83.9491 3.8147e-06H76.7674L59.9593 16.8082L57.5756 14.3939L71.9695 3.8147e-06H64.7878L36 28.7878L7.21226 3.8147e-06H4.1157e-05L36 36L47.9797 23.9898L59.9899 36L95.9593 3.8147e-06H88.7471Z" fill="var(--fill-0, #3D4659)" id="Vector"/>
<path d="M52.7785 3.8147e-06L47.9805 4.79797L43.1826 3.8147e-06H36.0009L44.3744 8.40408L41.9907 10.7878L31.2029 3.8147e-06H23.9907L38.3846 14.3939L36.0009 16.8082L19.1928 3.8147e-06H12.0111L36.0009 23.9898L59.9907 3.8147e-06H52.7785Z" fill="var(--fill-0, #1886A8)" id="Vector_2"/>
</g>
</svg>